<mxfile host="app.diagrams.net" modified="2023-08-05T09:55:04.275Z" agent="Mozilla/5.0 (X11; Linux x86_64; rv:109.0) Gecko/20100101 Firefox/115.0" version="21.6.6" etag="gdPLPbJbmoKJGIEHiPpz" type="github">
  <diagram name="Page-1" id="CtiNkO1rfJ_EtSY7usm1">
    <mxGraphModel>
      <root>
        <mxCell id="0" />
        <mxCell id="1" parent="0" />
      </root>
    </mxGraphModel>
  </diagram>
</mxfile>
